<svg xmlns="http://www.w3.org/2000/svg" viewBox="0 0 1035 1035" fill="none">
  <path d="M908.383 923c-3.735 0-7.471-1.43-10.316-4.275L763.949 784.606c-5.705-5.705-5.705-14.926 0-20.631s14.926-5.705 20.631 0l134.119 134.119c5.705 5.705 5.705 14.926 0 20.631-2.86 2.845-6.595 4.275-10.316 4.275Z" fill="#c7cac7"/>
  <path d="M825.829 722.712 722.686 825.854c-11.41 11.41-29.896 11.41-41.292 0L330.632 475.092c-11.41-11.41-11.41-29.897 0-41.292l103.142-103.142c11.41-11.41 29.897-11.41 41.292 0l350.763 350.762c11.395 11.396 11.395 29.882 0 41.292Z" fill="#dff2f8"/>
  <path d="m413.144 351.286-61.903 61.902 134.123 134.123 61.903-61.902-134.123-134.123Z" fill="#7383bf"/>
  <path d="M825.829 681.42 590.334 445.925 445.899 590.359 681.38 825.84c11.41 11.41 29.897 11.41 41.292 0l103.142-103.142c11.41-11.396 11.41-29.882.015-41.278Z" fill="#d1edb9"/>
  <path d="M387.361 273.899c17.918-17.917 27.781-41.729 27.781-67.059 0-25.329-9.878-49.156-27.781-67.059C369.444 121.863 345.631 112 320.287 112s-49.142 9.863-67.059 27.781c-17.903 17.903-27.781 41.715-27.781 67.059 0 7.193.876 14.226 2.422 21.084-6.828-1.561-13.876-2.437-21.069-2.437-25.33 0-49.142 9.864-67.059 27.781-36.988 36.973-36.988 97.146 0 134.119 17.917 17.917 41.715 27.78 67.059 27.78s49.156-9.863 67.059-27.78c9.134-9.134 16.006-19.698 20.617-30.962l56.758 56.758 61.909-61.909-56.714-56.714c11.439-4.698 21.93-11.658 30.932-20.661Zm-132.732-67.059c0-17.538 6.828-34.026 19.23-46.428 12.402-12.402 28.89-19.23 46.428-19.23s34.026 6.828 46.428 19.23c12.402 12.402 19.231 28.89 19.231 46.428s-6.829 34.026-19.231 46.428c-12.402 12.402-28.875 19.231-46.428 19.231s-34.026-6.829-46.428-19.231c-12.402-12.402-19.23-28.89-19.23-46.428Zm-1.401 159.915c-12.402 12.402-28.89 19.231-46.428 19.231s-34.026-6.829-46.428-19.231c-25.592-25.607-25.592-67.249 0-92.856 12.402-12.402 28.89-19.23 46.428-19.23s34.026 6.828 46.428 19.23c25.607 25.607 25.607 67.249 0 92.856Z" fill="#7fabda"/>
  <path d="M588.539 682.675c12.087 0 21.886-9.799 21.886-21.886s-9.799-21.886-21.886-21.886-21.887 9.799-21.887 21.886 9.8 21.886 21.887 21.886ZM660.763 754.899c12.088 0 21.886-9.798 21.886-21.886s-9.798-21.886-21.886-21.886-21.886 9.799-21.886 21.886 9.799 21.886 21.886 21.886ZM640.132 589.819c12.088 0 21.886-9.799 21.886-21.886s-9.798-21.886-21.886-21.886-21.886 9.799-21.886 21.886 9.799 21.886 21.886 21.886ZM681.394 672.359c12.087 0 21.886-9.798 21.886-21.886s-9.799-21.886-21.886-21.886-21.886 9.799-21.886 21.886 9.799 21.886 21.886 21.886ZM753.619 723.953c12.087 0 21.886-9.799 21.886-21.887s-9.799-21.886-21.886-21.886-21.887 9.799-21.887 21.886 9.8 21.887 21.887 21.887Z" fill="#60bb42"/>
  <path d="M268.709 510.314c-3.736 0-7.471-1.43-10.316-4.275-5.705-5.705-5.705-14.926 0-20.631l226.974-226.989c5.705-5.705 14.927-5.705 20.632 0s5.705 14.926 0 20.631L279.024 506.039c-2.845 2.845-6.58 4.275-10.315 4.275Z" fill="#a1c8ec"/>
  <path d="m452.247 596.719 144.441-144.44-20.635-20.634-144.44 144.44 20.634 20.634Z" fill="#556080"/>
</svg>
